<?xml version="1.0" encoding="UTF-8"?>
<svg id="_レイヤー_2" data-name="レイヤー 2" xmlns="http://www.w3.org/2000/svg" xmlns:xlink="http://www.w3.org/1999/xlink" viewBox="0 0 532 680">
  <defs>
    <style>
      .cls-1 {
        fill: #fff;
        stroke: #9f8bd1;
        stroke-linecap: round;
        stroke-linejoin: round;
      }
    </style>
    <symbol id="_新規シンボル_1" data-name="新規シンボル 1" viewBox="0 0 212.44 311.59">
      <path class="cls-1" d="m191.22,303.75h-8.07c-1.98,0-3.59-1.64-3.59-3.67h0c0-2.03,1.61-3.67,3.59-3.67h25.21c1.98,0,3.59-1.64,3.59-3.67h0c0-2.03-1.61-3.67-3.59-3.67h-17.14.1-16.24c-1.98,0-3.59-1.64-3.59-3.67h0c0-2.03,1.61-3.67,3.59-3.67h31.49l.22-281.25s-165.03,0-165.03,0H14.85c-1.98,0-3.59,1.64-3.59,3.67h0c0,2.03,1.61,3.67,3.59,3.67h8.07-1.69,8.07c1.98,0,3.59,1.64,3.59,3.67h0c0,2.03-1.61,3.67-3.59,3.67H4.09c-1.98,0-3.59,1.64-3.59,3.67h0c0,2.03,1.61,3.67,3.59,3.67h17.14-.1,16.24c1.98,0,3.59,1.64,3.59,3.67h0c0,2.03-1.61,3.67-3.59,3.67H5.88l-.22,281.25h191.94c1.98,0,3.59-1.64,3.59-3.67h0c0-2.03-1.61-3.67-3.59-3.67h-8.07"/>
    </symbol>
  </defs>
  <g id="_コンテンツ" data-name="コンテンツ">
    <use width="212.44" height="311.59" transform="scale(2.5 2.18)" xlink:href="#_新規シンボル_1"/>
  </g>
</svg>