<?xml version="1.0" encoding="UTF-8"?>
<svg id="_レイヤー_2" data-name="レイヤー 2" xmlns="http://www.w3.org/2000/svg" viewBox="0 0 480 270">
  <defs>
    <style>
      .cls-1 {
        fill: #4d4d4d;
        stroke-width: 0px;
      }

      .cls-2 {
        fill: #fff;
        stroke: #4d4d4d;
        stroke-miterlimit: 10;
      }
    </style>
  </defs>
  <g id="_コンテンツ" data-name="コンテンツ">
    <g>
      <rect class="cls-2" x=".5" y=".5" width="479" height="269"/>
      <g>
        <g>
          <path class="cls-1" d="m197.01,152.1h1.67l3.42,6.05,1.08,2.19h.07c-.08-1.06-.21-2.31-.21-3.43v-4.8h1.54v10.31h-1.67l-3.42-6.08-1.08-2.16h-.07c.08,1.06.21,2.25.21,3.38v4.86h-1.54v-10.31Z"/>
          <path class="cls-1" d="m206.6,158.57c0-2.58,1.72-4.06,3.63-4.06s3.63,1.49,3.63,4.06-1.72,4.02-3.63,4.02-3.63-1.47-3.63-4.02Zm5.6,0c0-1.64-.76-2.73-1.97-2.73s-1.96,1.09-1.96,2.73.76,2.7,1.96,2.7,1.97-1.08,1.97-2.7Z"/>
          <path class="cls-1" d="m214.9,154.71h1.62l1.02,4.17c.15.74.28,1.46.42,2.19h.06c.17-.73.32-1.46.5-2.19l1.08-4.17h1.5l1.11,4.17c.18.74.34,1.46.52,2.19h.06c.15-.73.28-1.44.45-2.19l.99-4.17h1.51l-1.99,7.7h-1.93l-.98-3.81c-.18-.73-.32-1.43-.49-2.23h-.07c-.15.8-.29,1.51-.49,2.24l-.94,3.8h-1.86l-2.09-7.7Z"/>
          <path class="cls-1" d="m230.63,152.1h3.12c2.3,0,3.94.78,3.94,3.11s-1.64,3.29-3.88,3.29h-1.56v3.91h-1.62v-10.31Zm3.03,5.1c1.65,0,2.44-.63,2.44-1.99s-.85-1.81-2.49-1.81h-1.34v3.8h1.4Z"/>
          <path class="cls-1" d="m239.54,154.71h1.32l.13,1.39h.04c.55-.99,1.36-1.58,2.18-1.58.38,0,.63.06.87.17l-.29,1.4c-.27-.08-.46-.13-.77-.13-.63,0-1.39.43-1.88,1.65v4.8h-1.6v-7.7Z"/>
          <path class="cls-1" d="m245.04,152.31c0-.57.43-.95,1.02-.95s1.04.38,1.04.95-.45.95-1.04.95-1.02-.39-1.02-.95Zm.22,2.4h1.6v7.7h-1.6v-7.7Z"/>
          <path class="cls-1" d="m249.29,154.71h1.32l.13,1.06h.04c.71-.69,1.5-1.26,2.55-1.26,1.64,0,2.37,1.09,2.37,3.05v4.85h-1.61v-4.65c0-1.33-.39-1.86-1.3-1.86-.71,0-1.21.36-1.89,1.05v5.46h-1.6v-7.7Z"/>
          <path class="cls-1" d="m258.28,159.89v-3.89h-1.12v-1.21l1.19-.08.18-2.13h1.36v2.13h2v1.29h-2v3.91c0,.92.32,1.4,1.12,1.4.27,0,.6-.08.83-.18l.29,1.19c-.43.14-.95.28-1.51.28-1.74,0-2.34-1.08-2.34-2.7Z"/>
          <path class="cls-1" d="m263.34,152.31c0-.57.43-.95,1.02-.95s1.04.38,1.04.95-.45.95-1.04.95-1.02-.39-1.02-.95Zm.22,2.4h1.6v7.7h-1.6v-7.7Z"/>
          <path class="cls-1" d="m267.58,154.71h1.32l.13,1.06h.04c.71-.69,1.5-1.26,2.55-1.26,1.64,0,2.37,1.09,2.37,3.05v4.85h-1.61v-4.65c0-1.33-.39-1.86-1.3-1.86-.71,0-1.21.36-1.89,1.05v5.46h-1.6v-7.7Z"/>
          <path class="cls-1" d="m275.76,163.84c0-.64.41-1.25,1.12-1.68v-.07c-.39-.24-.7-.64-.7-1.27s.43-1.12.85-1.43v-.06c-.52-.41-1.01-1.13-1.01-2.04,0-1.75,1.39-2.77,2.98-2.77.43,0,.83.08,1.12.2h2.73v1.21h-1.47c.29.31.5.83.5,1.41,0,1.68-1.27,2.65-2.88,2.65-.35,0-.74-.08-1.08-.24-.25.22-.42.45-.42.81,0,.46.31.76,1.29.76h1.42c1.82,0,2.77.56,2.77,1.88,0,1.48-1.57,2.69-4.03,2.69-1.85,0-3.19-.69-3.19-2.03Zm5.67-.41c0-.64-.5-.84-1.44-.84h-1.16c-.36,0-.71-.04-1.04-.11-.46.34-.66.73-.66,1.12,0,.76.78,1.21,2.06,1.21,1.34,0,2.24-.66,2.24-1.37Zm-.97-6.15c0-1.04-.64-1.64-1.46-1.64s-1.46.59-1.46,1.64.66,1.65,1.46,1.65,1.46-.63,1.46-1.65Z"/>
        </g>
        <g>
          <path class="cls-1" d="m258.91,110.38h-3.25l-.34-3.39v-.06c-.23-1.57-1.64-2.8-3.22-2.8h-9.24c-1.58,0-3,1.23-3.21,2.8l-.35,3.46h-4.04v-2.91h-11.26v2.91h-2.91c-1.93,0-3.5,1.57-3.5,3.5v21.14c0,1.93,1.57,3.5,3.5,3.5h37.83c1.93,0,3.5-1.57,3.5-3.5v-21.14c0-1.93-1.57-3.5-3.5-3.5Zm-18.91,25.12c-4.18,0-7.57-3.39-7.57-7.57s3.39-7.57,7.57-7.57,7.57,3.39,7.57,7.57-3.39,7.57-7.57,7.57Zm19.05-18.17h-38.1v-3.45c0-.07.06-.14.14-.14h6.27v-2.91h4.54v2.91h10.44l.63-6.25h9.03l.63,6.25h6.29c.07,0,.14.06.14.14v3.45Z"/>
          <circle class="cls-1" cx="240" cy="127.93" r="4.76"/>
        </g>
      </g>
    </g>
  </g>
</svg>